<mxfile host="app.diagrams.net" modified="2021-07-27T11:19:58.504Z" agent="5.0 (Macintosh; Intel Mac OS X 10_15_7) AppleWebKit/537.36 (KHTML, like Gecko) Chrome/91.0.4472.164 Safari/537.36" etag="0u9Cec1by_kyQAZu_24K" version="14.9.2" type="github">
  <diagram id="oBaXM8wP7eFEGIp9EPOi" name="Page-1">
    <mxGraphModel dx="1426" dy="714" grid="1" gridSize="10" guides="1" tooltips="1" connect="1" arrows="1" fold="1" page="1" pageScale="1" pageWidth="827" pageHeight="1169" math="0" shadow="0">
      <root>
        <mxCell id="0" />
        <mxCell id="1" parent="0" />
        <mxCell id="UuBu_1ff-EE2hRXzYAon-24" value="" style="rounded=1;whiteSpace=wrap;html=1;" vertex="1" parent="1">
          <mxGeometry x="50" y="10" width="760" height="810" as="geometry" />
        </mxCell>
        <mxCell id="UuBu_1ff-EE2hRXzYAon-3" style="edgeStyle=orthogonalEdgeStyle;rounded=0;orthogonalLoop=1;jettySize=auto;html=1;exitX=0.5;exitY=0;exitDx=0;exitDy=0;entryX=0.583;entryY=0.75;entryDx=0;entryDy=0;entryPerimeter=0;" edge="1" parent="1" source="UuBu_1ff-EE2hRXzYAon-1" target="UuBu_1ff-EE2hRXzYAon-2">
          <mxGeometry relative="1" as="geometry" />
        </mxCell>
        <mxCell id="UuBu_1ff-EE2hRXzYAon-10" style="edgeStyle=orthogonalEdgeStyle;rounded=0;orthogonalLoop=1;jettySize=auto;html=1;exitX=0.5;exitY=1;exitDx=0;exitDy=0;" edge="1" parent="1" source="UuBu_1ff-EE2hRXzYAon-1" target="UuBu_1ff-EE2hRXzYAon-4">
          <mxGeometry relative="1" as="geometry" />
        </mxCell>
        <mxCell id="UuBu_1ff-EE2hRXzYAon-1" value="model-upgrader-service" style="rounded=1;whiteSpace=wrap;html=1;" vertex="1" parent="1">
          <mxGeometry x="250" y="200" width="120" height="60" as="geometry" />
        </mxCell>
        <mxCell id="UuBu_1ff-EE2hRXzYAon-2" value="model-upgrade-config.json" style="shape=document;whiteSpace=wrap;html=1;boundedLbl=1;" vertex="1" parent="1">
          <mxGeometry x="250" y="40" width="120" height="80" as="geometry" />
        </mxCell>
        <mxCell id="UuBu_1ff-EE2hRXzYAon-11" style="edgeStyle=orthogonalEdgeStyle;rounded=0;orthogonalLoop=1;jettySize=auto;html=1;exitX=0.5;exitY=1;exitDx=0;exitDy=0;entryX=0.5;entryY=0;entryDx=0;entryDy=0;" edge="1" parent="1" source="UuBu_1ff-EE2hRXzYAon-4" target="UuBu_1ff-EE2hRXzYAon-8">
          <mxGeometry relative="1" as="geometry" />
        </mxCell>
        <mxCell id="UuBu_1ff-EE2hRXzYAon-15" style="edgeStyle=orthogonalEdgeStyle;rounded=0;orthogonalLoop=1;jettySize=auto;html=1;exitX=1;exitY=0.5;exitDx=0;exitDy=0;entryX=0.5;entryY=0;entryDx=0;entryDy=0;entryPerimeter=0;" edge="1" parent="1" source="UuBu_1ff-EE2hRXzYAon-4" target="UuBu_1ff-EE2hRXzYAon-14">
          <mxGeometry relative="1" as="geometry" />
        </mxCell>
        <mxCell id="UuBu_1ff-EE2hRXzYAon-4" value="Record Exist" style="rhombus;whiteSpace=wrap;html=1;" vertex="1" parent="1">
          <mxGeometry x="265" y="360" width="90" height="80" as="geometry" />
        </mxCell>
        <mxCell id="UuBu_1ff-EE2hRXzYAon-12" style="edgeStyle=orthogonalEdgeStyle;rounded=0;orthogonalLoop=1;jettySize=auto;html=1;exitX=0.5;exitY=1;exitDx=0;exitDy=0;entryX=0.5;entryY=0;entryDx=0;entryDy=0;" edge="1" parent="1" source="UuBu_1ff-EE2hRXzYAon-8" target="UuBu_1ff-EE2hRXzYAon-9">
          <mxGeometry relative="1" as="geometry" />
        </mxCell>
        <mxCell id="UuBu_1ff-EE2hRXzYAon-8" value="Check Minerva Upgrade Queue Inbound table" style="rounded=1;whiteSpace=wrap;html=1;" vertex="1" parent="1">
          <mxGeometry x="250" y="490" width="120" height="60" as="geometry" />
        </mxCell>
        <mxCell id="UuBu_1ff-EE2hRXzYAon-16" style="edgeStyle=orthogonalEdgeStyle;rounded=0;orthogonalLoop=1;jettySize=auto;html=1;exitX=1;exitY=0.5;exitDx=0;exitDy=0;entryX=0.5;entryY=1;entryDx=0;entryDy=0;entryPerimeter=0;" edge="1" parent="1" source="UuBu_1ff-EE2hRXzYAon-9" target="UuBu_1ff-EE2hRXzYAon-14">
          <mxGeometry relative="1" as="geometry" />
        </mxCell>
        <mxCell id="UuBu_1ff-EE2hRXzYAon-22" style="edgeStyle=orthogonalEdgeStyle;rounded=0;orthogonalLoop=1;jettySize=auto;html=1;exitX=0.5;exitY=1;exitDx=0;exitDy=0;" edge="1" parent="1" source="UuBu_1ff-EE2hRXzYAon-9" target="UuBu_1ff-EE2hRXzYAon-21">
          <mxGeometry relative="1" as="geometry" />
        </mxCell>
        <mxCell id="UuBu_1ff-EE2hRXzYAon-9" value="Training done or in progress ?" style="rhombus;whiteSpace=wrap;html=1;" vertex="1" parent="1">
          <mxGeometry x="260" y="590" width="100" height="100" as="geometry" />
        </mxCell>
        <mxCell id="UuBu_1ff-EE2hRXzYAon-14" value="" style="verticalLabelPosition=bottom;verticalAlign=top;html=1;shape=mxgraph.flowchart.or;" vertex="1" parent="1">
          <mxGeometry x="660" y="450" width="70" height="70" as="geometry" />
        </mxCell>
        <mxCell id="UuBu_1ff-EE2hRXzYAon-17" value="Yes" style="text;html=1;align=center;verticalAlign=middle;resizable=0;points=[];autosize=1;strokeColor=none;" vertex="1" parent="1">
          <mxGeometry x="310" y="450" width="40" height="20" as="geometry" />
        </mxCell>
        <mxCell id="UuBu_1ff-EE2hRXzYAon-18" value="No" style="text;html=1;align=center;verticalAlign=middle;resizable=0;points=[];autosize=1;strokeColor=none;" vertex="1" parent="1">
          <mxGeometry x="445" y="380" width="30" height="20" as="geometry" />
        </mxCell>
        <mxCell id="UuBu_1ff-EE2hRXzYAon-20" value="No" style="text;html=1;align=center;verticalAlign=middle;resizable=0;points=[];autosize=1;strokeColor=none;" vertex="1" parent="1">
          <mxGeometry x="500" y="610" width="30" height="20" as="geometry" />
        </mxCell>
        <mxCell id="UuBu_1ff-EE2hRXzYAon-21" value="Insert Record into Minerva Upgrade Inbound table for further processing" style="rounded=1;whiteSpace=wrap;html=1;" vertex="1" parent="1">
          <mxGeometry x="250" y="740" width="120" height="60" as="geometry" />
        </mxCell>
        <mxCell id="UuBu_1ff-EE2hRXzYAon-23" value="Yes" style="text;html=1;align=center;verticalAlign=middle;resizable=0;points=[];autosize=1;strokeColor=none;" vertex="1" parent="1">
          <mxGeometry x="310" y="700" width="40" height="20" as="geometry" />
        </mxCell>
      </root>
    </mxGraphModel>
  </diagram>
</mxfile>
